# xmcd
#
# Track frame offsets:
#	150
#	17479
#	33433
#	50290
#	64692
#	86740
#	98295
#	109507
#	128414
#	141476
#	150726
#
# Disc length: 2209 seconds
#
# Revision: 2
# Processed by: cddbd v1.5.2PL0 Copyright (c) Steve Scherf et al.
# Submitted via: audiograbber 1.83.01
#
DISCID=7e089f0b
DTITLE=Damnations, The - Where it lands
DYEAR=2002
DGENRE=Country
TTITLE0=All night special
TTITLE1=Root on
TTITLE2=Quarter in the couch
TTITLE3=Wanna be your mama
TTITLE4=Steeple full of swallows
TTITLE5=Bloodhound
TTITLE6=New hope cemetary
TTITLE7=Animal children
TTITLE8=Corona
TTITLE9=Tora tora tora
TTITLE10=Time to go home
EXTD=
EXTT0=
EXTT1=
EXTT2=
EXTT3=
EXTT4=
EXTT5=
EXTT6=
EXTT7=
EXTT8=
EXTT9=
EXTT10=
PLAYORDER=
